<svg fill="#F8BA43" xmlns="http://www.w3.org/2000/svg" viewBox="0 0 65 16"><path d="M64.11,5.32a9.45,9.45,0,0,0-8-5.21S50.29-.77,40.69,2.39c0,0-18.33,5.87-24.61,7.93a37,37,0,0,1-7.62,1.59c-1.9.14-4.06.06-4.94-.47a2.89,2.89,0,0,1-.8-4.72C4.05,4.94,7.89,4.93,7.89,4.93a.45.45,0,0,0,.42-.34s0-.36-.6-.39S1.15,3.58.06,8.28c0,0-1.29,5.46,8.23,6,0,0,7.33.13,18.82-4.29,0,0,16.36-5.89,24.45-7.17,3.67-.58,7.48-.35,9.36.89,0,0,5.76,3.6,1.44,9.47a6.24,6.24,0,0,1-3.2,2,.45.45,0,0,0-.35.44s.08.4.61.26a6.67,6.67,0,0,0,4.49-3.09s2.31-3.89.2-7.57"/></svg>